<?xml version="1.0" encoding="UTF-8"?>
<svg width="30px" height="18px" viewBox="0 0 30 18" version="1.1" xmlns="http://www.w3.org/2000/svg" xmlns:xlink="http://www.w3.org/1999/xlink">
    <title>discover</title>
    <desc>Created with Sketch.</desc>
    <defs></defs>
    <g id="Process" stroke="none" stroke-width="1" fill="none" fill-rule="evenodd">
        <g id="2.2_Checkout" transform="translate(-432.000000, -471.000000)" fill-rule="nonzero">
            <g id="Checkout" transform="translate(194.000000, 110.000000)">
                <g id="Payment" transform="translate(32.000000, 241.000000)">
                    <g id="Method" transform="translate(0.000000, 105.000000)">
                        <g id="discover" transform="translate(206.000000, 15.000000)">
                            <rect id="Rectangle-path" fill="#FFFFFF" x="0" y="0" width="28.5882353" height="18"></rect>
                            <path d="M29.553239,0 L0,0 L0,18 L29.6470588,18 L29.6470588,0 L29.553239,0 Z M29.4125093,0.178217822 C29.4125093,0.356435644 29.4125093,17.5990099 29.4125093,17.7772277 C29.1779598,17.7772277 0.422189129,17.7772277 0.187639613,17.7772277 C0.187639613,17.5544554 0.187639613,0.356435644 0.187639613,0.178217822 C0.422189129,0.222772277 29.2248697,0.178217822 29.4125093,0.178217822 Z" id="Shape" fill="#231F20"></path>
                            <path d="M29.2352941,10 C29.2352941,10 21.3956337,15.1247059 7,17.4117647 L29.2352941,17.4117647 L29.2352941,10 Z" id="Shape" fill="#F58220"></path>
                            <g id="Group" transform="translate(2.117647, 5.294118)">
                                <path d="M13.6996904,0.169411765 C12.4922601,0.169411765 11.5170279,1.01647059 11.5170279,2.07529412 C11.5170279,3.17647059 12.4458204,4.02352941 13.6996904,4.02352941 C14.9071207,4.02352941 15.8823529,3.17647059 15.8823529,2.07529412 C15.8359133,1.01647059 14.9071207,0.169411765 13.6996904,0.169411765 Z" id="Shape" fill="#F58220"></path>
                                <path d="M1.39318885,0.254117647 L0.232198142,0.254117647 L0.232198142,3.93882353 L1.39318885,3.93882353 C1.99690402,3.93882353 2.46130031,3.81176471 2.83281734,3.51529412 C3.29721362,3.17647059 3.57585139,2.62588235 3.57585139,2.07529412 C3.57585139,1.01647059 2.69349845,0.254117647 1.39318885,0.254117647 Z M2.32198142,3.00705882 C2.08978328,3.21882353 1.76470588,3.30352941 1.25386997,3.30352941 L1.02167183,3.30352941 L1.02167183,0.847058824 L1.25386997,0.847058824 C1.76470588,0.847058824 2.08978328,0.931764706 2.32198142,1.14352941 C2.6006192,1.35529412 2.73993808,1.69411765 2.73993808,2.07529412 C2.78637771,2.45647059 2.6006192,2.79529412 2.32198142,3.00705882 Z" id="Shape" fill="#001722"></path>
                                <rect id="Rectangle-path" fill="#001722" x="3.94736842" y="0.254117647" width="1" height="3.68470588"></rect>
                                <path d="M6.6873065,1.65176471 C6.22291022,1.48235294 6.08359133,1.39764706 6.08359133,1.18588235 C6.08359133,0.931764706 6.31578947,0.762352941 6.6873065,0.762352941 C6.91950464,0.762352941 7.10526316,0.847058824 7.3374613,1.05882353 L7.75541796,0.550588235 C7.43034056,0.296470588 7.0123839,0.127058824 6.54798762,0.127058824 C5.85139319,0.127058824 5.29411765,0.592941176 5.29411765,1.18588235 C5.29411765,1.69411765 5.57275542,1.94823529 6.31578947,2.20235294 C6.64086687,2.28705882 6.78018576,2.37176471 6.87306502,2.41411765 C7.0123839,2.49882353 7.10526316,2.62588235 7.10526316,2.79529412 C7.10526316,3.09176471 6.82662539,3.30352941 6.50154799,3.30352941 C6.13003096,3.30352941 5.80495356,3.13411765 5.61919505,2.79529412 L5.10835913,3.26117647 C5.47987616,3.76941176 5.89783282,3.98117647 6.50154799,3.98117647 C7.3374613,3.98117647 7.89473684,3.47294118 7.89473684,2.75294118 C7.84829721,2.24470588 7.56965944,1.94823529 6.6873065,1.65176471 Z" id="Shape" fill="#001722"></path>
                                <path d="M8.08049536,2.07529412 C8.08049536,3.17647059 9.00928793,4.02352941 10.2167183,4.02352941 C10.5417957,4.02352941 10.8668731,3.98117647 11.1919505,3.81176471 L11.1919505,2.96470588 C10.8668731,3.26117647 10.5882353,3.38823529 10.2167183,3.38823529 C9.42724458,3.38823529 8.86996904,2.88 8.86996904,2.11764706 C8.86996904,1.39764706 9.47368421,0.847058824 10.2167183,0.847058824 C10.5882353,0.847058824 10.8668731,0.974117647 11.1919505,1.27058824 L11.1919505,0.423529412 C10.8668731,0.254117647 10.5417957,0.211764706 10.2167183,0.211764706 C9.05572755,0.169411765 8.08049536,1.01647059 8.08049536,2.07529412 Z" id="Shape" fill="#001722"></path>
                                <polygon id="Shape" fill="#001722" points="17.6470588 2.71058824 16.5789474 0.254117647 15.6965944 0.254117647 17.4148607 4.02352941 17.8328173 4.02352941 19.5975232 0.254117647 18.7616099 0.254117647"></polygon>
                                <polygon id="Shape" fill="#001722" points="19.9690402 3.93882353 22.1981424 3.93882353 22.1981424 3.30352941 20.7585139 3.30352941 20.7585139 2.32941176 22.1517028 2.32941176 22.1517028 1.69411765 20.7585139 1.69411765 20.7585139 0.847058824 22.1981424 0.847058824 22.1981424 0.254117647 19.9690402 0.254117647"></polygon>
                                <path d="M25.3560372,1.31294118 C25.3560372,0.635294118 24.8452012,0.211764706 23.9164087,0.211764706 L22.755418,0.211764706 L22.755418,3.89647059 L23.5448916,3.89647059 L23.5448916,2.41411765 L23.6377709,2.41411765 L24.752322,3.89647059 L25.7275542,3.89647059 L24.4272446,2.32941176 C25.0309598,2.28705882 25.3560372,1.90588235 25.3560372,1.31294118 Z M23.7770898,1.94823529 L23.5448916,1.94823529 L23.5448916,0.804705882 L23.7770898,0.804705882 C24.2879257,0.804705882 24.5201238,0.974117647 24.5201238,1.35529412 C24.5201238,1.73647059 24.2879257,1.94823529 23.7770898,1.94823529 Z" id="Shape" fill="#001722"></path>
                                <path d="M25.9458204,0.529411765 C25.9458204,0.423529412 25.8928793,0.423529412 25.7869969,0.423529412 L25.6811146,0.423529412 L25.6811146,0.847058824 L25.7869969,0.847058824 L25.7869969,0.688235294 L25.8928793,0.847058824 L25.9987616,0.847058824 L25.8399381,0.688235294 C25.8928793,0.635294118 25.9458204,0.582352941 25.9458204,0.529411765 Z M25.7869969,0.582352941 L25.7869969,0.582352941 L25.7869969,0.476470588 L25.7869969,0.476470588 C25.8399381,0.476470588 25.8399381,0.476470588 25.8399381,0.529411765 C25.8399381,0.582352941 25.8399381,0.582352941 25.7869969,0.582352941 Z" id="Shape" fill="#231F20"></path>
                                <path d="M25.7739938,0.296470588 C25.5882353,0.296470588 25.4489164,0.423529412 25.4489164,0.592941176 C25.4489164,0.762352941 25.5882353,0.889411765 25.7739938,0.889411765 C25.9597523,0.889411765 26.0990712,0.762352941 26.0990712,0.592941176 C26.0990712,0.423529412 25.9597523,0.296470588 25.7739938,0.296470588 Z M25.7739938,0.804705882 C25.6346749,0.804705882 25.5417957,0.72 25.5417957,0.550588235 C25.5417957,0.423529412 25.6346749,0.296470588 25.7739938,0.296470588 C25.9133127,0.296470588 26.006192,0.381176471 26.006192,0.550588235 C26.0526316,0.72 25.9133127,0.804705882 25.7739938,0.804705882 Z" id="Shape" fill="#231F20"></path>
                            </g>
                        </g>
                    </g>
                </g>
            </g>
        </g>
    </g>
</svg>