<?xml version="1.0" encoding="UTF-8"?>
<svg width="27px" height="22px" viewBox="0 0 27 22" version="1.1" xmlns="http://www.w3.org/2000/svg" xmlns:xlink="http://www.w3.org/1999/xlink">
    <title>g12</title>
    <desc>Created with Sketch.</desc>
    <defs></defs>
    <g id="Process" stroke="none" stroke-width="1" fill="none" fill-rule="evenodd">
        <g id="2.2_1_Checkout" transform="translate(-325.000000, -468.000000)" fill-rule="nonzero">
            <g id="Checkout" transform="translate(194.000000, 110.000000)">
                <g id="Payment" transform="translate(32.000000, 241.000000)">
                    <g id="Method" transform="translate(0.000000, 105.000000)">
                        <g id="mastercard" transform="translate(99.000000, 12.000000)">
                            <g id="g10" transform="translate(14.000000, 11.000000) scale(-1, 1) rotate(-180.000000) translate(-14.000000, -11.000000) ">
                                <g id="g12" transform="translate(0.498992, 0.217105)">
                                    <path d="M26.4038018,12.6138158 C26.4038018,8.03289474 22.7540323,4.31315789 18.2488479,4.31315789 C13.7436636,4.31315789 10.093894,8.02565789 10.093894,12.6138158 C10.093894,17.2019737 13.7436636,20.9144737 18.2488479,20.9144737 C22.7540323,20.9144737 26.4038018,17.2019737 26.4038018,12.6138158 L26.4038018,12.6138158" id="path14" fill="#F59511"></path>
                                    <path d="M16.3384217,12.6138158 C16.3384217,8.03289474 12.6886521,4.31315789 8.18346774,4.31315789 C3.67828341,4.31315789 0.0285138249,8.02565789 0.0285138249,12.6138158 C0.0285138249,17.2019737 3.67828341,20.9144737 8.18346774,20.9144737 C12.6886521,20.9144737 16.3384217,17.2019737 16.3384217,12.6138158 L16.3384217,12.6138158" id="path16" fill="#EA1C24"></path>
                                    <path d="M13.2161578,19.1486842 C11.31286,17.6289474 10.093894,15.2697368 10.093894,12.6138158 C10.093894,9.96513158 11.31286,7.59868421 13.2161578,6.07894737 C15.1194556,7.59868421 16.3384217,9.95789474 16.3384217,12.6138158 C16.3384217,15.2697368 15.1194556,17.6289474 13.2161578,19.1486842" id="path18" fill="#F14D1C"></path>
                                    <path d="M25.9048099,8.21381579 L25.9048099,8.59389709 L26.0046083,8.59389709 L26.0046083,8.67214912 L25.7551123,8.67214912 L25.7551123,8.59389709 L25.8549107,8.59389709 L25.8549107,8.21381579 L25.9048099,8.21381579 Z M26.3895449,8.21381579 L26.3895449,8.67214912 L26.3111319,8.67214912 L26.2255904,8.35914099 L26.140049,8.67214912 L26.0616359,8.67214912 L26.0616359,8.21381579 L26.1186636,8.21381579 L26.1186636,8.5603605 L26.2042051,8.25853124 L26.2612327,8.25853124 L26.3467742,8.5603605 L26.3467742,8.21381579 L26.3895449,8.21381579 L26.3895449,8.21381579 Z" id="path20" fill="#F59511"></path>
                                    <path d="M1.83914171,0.209868421 L1.37579205,0.209868421 L1.37579205,2.40263158 L1.83201325,2.40263158 L1.83201325,2.13486842 C1.83201325,2.13486842 2.2312068,2.46052632 2.46644585,2.46052632 C2.92979551,2.45328947 3.20067684,2.05526316 3.20067684,2.05526316 C3.20067684,2.05526316 3.42165899,2.46052632 3.92777938,2.46052632 C4.66913882,2.46052632 4.78319412,1.77302632 4.78319412,1.77302632 L4.78319412,0.224342105 L4.34122984,0.224342105 L4.34122984,1.58486842 C4.34122984,1.58486842 4.34122984,1.99736842 3.86362327,1.99736842 C3.36463134,1.99736842 3.3218606,1.58486842 3.3218606,1.58486842 L3.3218606,0.224342105 L2.85851094,0.224342105 L2.85851094,1.59934211 C2.85851094,1.59934211 2.81574021,2.03355263 2.39516129,2.03355263 C1.85339862,2.03355263 1.83914171,1.59210526 1.83914171,1.59210526 L1.83914171,0.209868421" id="path22" fill="#100F0D"></path>
                                    <path d="M15.9178427,2.46052632 C15.6826037,2.46776316 15.2834101,2.13486842 15.2834101,2.13486842 L15.2834101,2.40263158 L14.8271889,2.40263158 L14.8271889,0.217105263 L15.2905386,0.217105263 L15.2834101,1.59210526 C15.2834101,1.59210526 15.2905386,2.03355263 15.8394297,2.03355263 C15.9392281,2.03355263 16.0176411,2.01184211 16.0817972,1.96842105 L16.0817972,1.96842105 L16.2314948,2.39539474 C16.1388249,2.43157895 16.031898,2.46052632 15.9178427,2.46052632" id="path24" fill="#100F0D"></path>
                                    <path d="M22.4403802,2.46052632 C22.2051411,2.46776316 21.8059476,2.13486842 21.8059476,2.13486842 L21.8059476,2.40263158 L21.3497264,2.40263158 L21.3497264,0.217105263 L21.813076,0.217105263 L21.8059476,1.59210526 C21.8059476,1.59210526 21.813076,2.03355263 22.3619672,2.03355263 C22.4617656,2.03355263 22.5401786,2.01184211 22.6043347,1.96842105 L22.6043347,1.96842105 L22.7540323,2.39539474 C22.6542339,2.43157895 22.5544355,2.46052632 22.4403802,2.46052632 L22.4403802,2.46052632" id="path26" fill="#100F0D"></path>
                                    <path d="M6.36571141,2.02631579 C6.73639113,2.02631579 7.04291475,1.70065789 7.04291475,1.29539474 C7.04291475,0.890131579 6.74351959,0.564473684 6.36571141,0.564473684 C5.99503168,0.564473684 5.69563652,0.890131579 5.69563652,1.29539474 C5.68850806,1.69342105 5.99503168,2.02631579 6.36571141,2.02631579 Z M6.27304147,2.46776316 C5.58158122,2.46776316 5.2109015,1.83815789 5.2109015,1.30986842 C5.2109015,0.767105263 5.63148041,0.144736842 6.29442684,0.144736842 C6.67936348,0.144736842 7.00014401,0.434210526 7.00014401,0.434210526 L7.00014401,0.209868421 L7.45636521,0.209868421 L7.45636521,2.40263158 L7.00014401,2.40263158 L7.00014401,2.12763158 C7.00014401,2.12763158 6.70074885,2.46776316 6.27304147,2.46776316 L6.27304147,2.46776316 L6.27304147,2.46776316 Z" id="path28" fill="#100F0D"></path>
                                    <path d="M19.6531538,2.02631579 C20.0238335,2.02631579 20.3303571,1.70065789 20.3303571,1.29539474 C20.3303571,0.890131579 20.030962,0.564473684 19.6531538,0.564473684 C19.2824741,0.564473684 18.9830789,0.890131579 18.9830789,1.29539474 C18.9830789,1.69342105 19.2824741,2.02631579 19.6531538,2.02631579 Z M19.5676123,2.46776316 C18.8761521,2.46776316 18.5054724,1.83815789 18.5054724,1.30986842 C18.5054724,0.767105263 18.9260513,0.144736842 19.5889977,0.144736842 C19.9739343,0.144736842 20.2947149,0.434210526 20.2947149,0.434210526 L20.2947149,0.209868421 L20.7509361,0.209868421 L20.7509361,2.40263158 L20.2947149,2.40263158 L20.2947149,2.12763158 C20.2875864,2.12763158 19.9881912,2.46776316 19.5676123,2.46776316 L19.5676123,2.46776316 L19.5676123,2.46776316 Z" id="path30" fill="#100F0D"></path>
                                    <path d="M24.0300259,2.02631579 C24.4007056,2.02631579 24.7072293,1.70065789 24.7072293,1.29539474 C24.7072293,0.890131579 24.4078341,0.564473684 24.0300259,0.564473684 C23.6522177,0.564473684 23.359951,0.890131579 23.359951,1.29539474 C23.359951,1.69342105 23.6593462,2.02631579 24.0300259,2.02631579 Z M23.937356,2.46776316 C23.2458957,2.46776316 22.875216,1.83815789 22.875216,1.30986842 C22.875216,0.767105263 23.2957949,0.144736842 23.9587414,0.144736842 C24.343678,0.144736842 24.6644585,0.434210526 24.6644585,0.434210526 L24.6644585,0.209868421 L25.1206797,0.209868421 L25.1206797,3.27105263 L24.6644585,3.27105263 L24.6644585,2.12763158 C24.6644585,2.12763158 24.3650634,2.46776316 23.937356,2.46776316 L23.937356,2.46776316 L23.937356,2.46776316 Z" id="path32" fill="#100F0D"></path>
                                    <path d="M8.84641417,0.1375 C8.37593606,0.1375 7.94110023,0.434210526 7.94110023,0.434210526 L8.140697,0.745394737 C8.140697,0.745394737 8.55414747,0.55 8.84641417,0.55 C9.03888249,0.55 9.35966302,0.615131579 9.36679147,0.810526316 C9.37391993,1.01315789 8.8250288,1.07828947 8.8250288,1.07828947 C8.8250288,1.07828947 8.01238479,1.09276316 8.01238479,1.77302632 C8.01238479,2.2 8.4187068,2.475 8.9390841,2.475 C9.23847926,2.475 9.8016273,2.20723684 9.8016273,2.20723684 L9.57351671,1.84539474 C9.57351671,1.84539474 9.13868088,2.01907895 8.91057028,2.02631579 C8.71810196,2.03355263 8.4828629,1.93947368 8.4828629,1.76578947 C8.4828629,1.30263158 9.83726959,1.80197368 9.83726959,0.861184211 C9.83726959,0.253289474 9.28125,0.1375 8.84641417,0.1375 L8.84641417,0.1375" id="path34" fill="#100F0D"></path>
                                    <path d="M10.5857575,3.03947368 L10.5857575,2.40263158 L10.1794355,2.40263158 L10.1794355,1.93947368 L10.5857575,1.93947368 L10.5857575,0.839473684 C10.5857575,0.839473684 10.5501152,0.0940789474 11.3413738,0.0940789474 C11.562356,0.0940789474 11.9900634,0.260526316 11.9900634,0.260526316 L11.8047235,0.738157895 C11.8047235,0.738157895 11.6336406,0.593421053 11.4411722,0.593421053 C11.077621,0.600657895 11.0847494,0.839473684 11.0847494,0.839473684 L11.0847494,1.93947368 L11.8403658,1.93947368 L11.8403658,2.40263158 L11.0847494,2.40263158 L11.0847494,3.03947368 L10.5857575,3.03947368" id="path36" fill="#100F0D"></path>
                                    <path d="M13.2589286,2.01184211 C13.2731855,2.01184211 13.2945709,2.01184211 13.3159562,2.01184211 C13.8719758,2.01184211 13.8648474,1.47631579 13.8648474,1.47631579 L12.7385513,1.47631579 C12.7456797,1.48355263 12.7171659,1.98289474 13.2589286,2.01184211 Z M13.3302131,2.44605263 C12.5888537,2.44605263 12.218174,1.82368421 12.218174,1.28815789 C12.218174,0.730921053 12.5532114,0.108552632 13.3729839,0.108552632 C13.7222782,0.108552632 14.2141417,0.419736842 14.2141417,0.419736842 L14.000288,0.796052632 C14.000288,0.796052632 13.6652506,0.557236842 13.3729839,0.557236842 C12.781322,0.557236842 12.7456797,1.14342105 12.7456797,1.14342105 L14.328197,1.14342105 C14.328197,1.13618421 14.4422523,2.44605263 13.3302131,2.44605263 L13.3302131,2.44605263 Z" id="path38" fill="#100F0D"></path>
                                    <path d="M18.0278658,0.796052632 L18.2417195,0.369078947 C18.2417195,0.369078947 17.906682,0.144736842 17.5288738,0.144736842 C16.7518721,0.144736842 16.3170363,0.738157895 16.3170363,1.30263158 C16.3170363,2.18552632 17.0084965,2.44605263 17.4718462,2.44605263 C17.8924251,2.44605263 18.2631048,2.2 18.2631048,2.2 L18.0278658,1.77302632 C18.0278658,1.77302632 17.8852967,2.00460526 17.4647177,2.00460526 C17.0441388,2.00460526 16.8231567,1.63552632 16.8231567,1.28815789 C16.8231567,0.897368421 17.0797811,0.564473684 17.4718462,0.564473684 C17.7712414,0.564473684 18.0278658,0.796052632 18.0278658,0.796052632 L18.0278658,0.796052632" id="path40" fill="#100F0D"></path>
                                    <path d="M26.1175256,0.40686097 C26.1378959,0.40686097 26.1480811,0.40686097 26.1582663,0.394638747 C26.1684515,0.382416525 26.1684515,0.370194303 26.1684515,0.357972081 C26.1684515,0.345749859 26.1684515,0.333527636 26.1582663,0.321305414 C26.1480811,0.309083192 26.1378959,0.309083192 26.1175256,0.309083192 L26.0462293,0.309083192 L26.0462293,0.40686097 L26.1175256,0.40686097 Z M26.0977381,0.405185342 L26.0020788,0.405185342 L26.0020788,0.198196095 L26.0462293,0.198196095 L26.0462293,0.279513299 L26.0683045,0.279513299 L26.1345302,0.198196095 L26.186039,0.198196095 L26.1198133,0.279513299 C26.1418886,0.279513299 26.1566054,0.286905772 26.1713222,0.301690719 C26.186039,0.316475665 26.186039,0.323868138 26.186039,0.346045557 C26.186039,0.368222977 26.1786806,0.383007923 26.1639638,0.397792869 C26.1418886,0.397792869 26.1198133,0.405185342 26.0977381,0.405185342 Z M26.0830213,0.124271364 C26.0315125,0.124271364 25.987362,0.13905631 25.9579284,0.176018676 C25.9284948,0.205588568 25.9064196,0.249943407 25.9064196,0.301690719 C25.9064196,0.353438031 25.9211364,0.390400396 25.9579284,0.427362762 C25.987362,0.456932654 26.0315125,0.479110074 26.0830213,0.479110074 C26.1345302,0.479110074 26.1713222,0.464325127 26.2081142,0.427362762 C26.2375478,0.397792869 26.2596231,0.353438031 26.2596231,0.301690719 C26.2596231,0.249943407 26.2449063,0.212981041 26.2081142,0.176018676 C26.1713222,0.13905631 26.1345302,0.124271364 26.0830213,0.124271364 Z M26.0830213,0.523464912 C26.0167957,0.523464912 25.9652868,0.501287493 25.9211364,0.456932654 C25.8769859,0.412577816 25.8549107,0.360830504 25.8549107,0.294298246 C25.8549107,0.227765988 25.8769859,0.176018676 25.9211364,0.131663837 C25.9652868,0.0873089983 26.0167957,0.0651315789 26.0830213,0.0651315789 C26.149247,0.0651315789 26.2007558,0.0873089983 26.2449063,0.131663837 C26.2890567,0.176018676 26.3111319,0.227765988 26.3111319,0.294298246 C26.3111319,0.360830504 26.2890567,0.412577816 26.2449063,0.456932654 C26.2007558,0.501287493 26.149247,0.523464912 26.0830213,0.523464912 L26.0830213,0.523464912 Z" id="path42" fill="#100F0D"></path>
                                </g>
                            </g>
                        </g>
                    </g>
                </g>
            </g>
        </g>
    </g>
</svg>