<?xml version="1.0" encoding="UTF-8"?>
<svg width="78" height="19" viewBox="0 0 78 19" fill="none" xmlns="http://www.w3.org/2000/svg">
<path d="M29.0682 4.11444H24.7662C24.6238 4.11435 24.486 4.16356 24.3778 4.2532C24.2695 4.34285 24.1978 4.46702 24.1756 4.60336L22.4357 15.2944C22.4277 15.344 22.4309 15.3947 22.445 15.443C22.4592 15.4913 22.484 15.536 22.5177 15.5742C22.5514 15.6123 22.5932 15.6429 22.6403 15.6638C22.6874 15.6848 22.7386 15.6956 22.7904 15.6955H24.8442C24.9867 15.6956 25.1246 15.6463 25.2329 15.5565C25.3412 15.4667 25.4128 15.3424 25.4349 15.206L25.9041 12.3224C25.9262 12.1861 25.9977 12.0619 26.1059 11.9721C26.2141 11.8824 26.3518 11.833 26.4942 11.8329H27.856C30.6898 11.8329 32.3253 10.5039 32.7524 7.87034C32.9449 6.71815 32.7606 5.81286 32.2039 5.17885C31.5925 4.48265 30.508 4.11444 29.0682 4.11444ZM29.5645 8.01909C29.3292 9.51512 28.1498 9.51512 27.0094 9.51512H26.3602L26.8156 6.7212C26.829 6.63946 26.8719 6.56502 26.9369 6.51126C27.0018 6.45751 27.0844 6.42797 27.1698 6.42797H27.4673C28.2442 6.42797 28.977 6.42797 29.3556 6.85715C29.5815 7.11319 29.6507 7.4936 29.5645 8.01909ZM41.9275 7.97093H39.8674C39.782 7.97093 39.6994 8.00047 39.6345 8.05422C39.5696 8.10798 39.5266 8.18242 39.5133 8.26416L39.4221 8.82258L39.278 8.62018C38.832 7.99288 37.8375 7.78317 36.8449 7.78317C34.5684 7.78317 32.6241 9.45415 32.2454 11.7982C32.0485 12.9674 32.3285 14.0855 33.0128 14.8652C33.6406 15.5821 34.5389 15.8808 35.6076 15.8808C37.4419 15.8808 38.459 14.7378 38.459 14.7378L38.3672 15.2925C38.359 15.3421 38.362 15.3929 38.376 15.4412C38.39 15.4896 38.4146 15.5344 38.4482 15.5727C38.4818 15.6109 38.5236 15.6417 38.5706 15.6628C38.6177 15.6839 38.6689 15.6948 38.7207 15.6949H40.5763C40.7188 15.695 40.8567 15.6457 40.965 15.5559C41.0733 15.4661 41.1449 15.3418 41.167 15.2054L42.2804 8.37207C42.2886 8.32258 42.2856 8.27195 42.2716 8.22369C42.2577 8.17543 42.233 8.13069 42.1995 8.09255C42.1659 8.0544 42.1242 8.02378 42.0773 8.00278C42.0303 7.98178 41.9792 7.97092 41.9275 7.97093ZM39.056 11.8567C38.8572 12.9973 37.9231 13.763 36.7317 13.763C36.1335 13.763 35.6554 13.5771 35.3484 13.2247C35.044 12.8748 34.9282 12.3767 35.0251 11.8219C35.2107 10.6911 36.1605 9.9004 37.3337 9.9004C37.9187 9.9004 38.3942 10.0888 38.7075 10.4442C39.0214 10.8033 39.1459 11.3044 39.056 11.8567ZM52.8991 7.97093H50.8289C50.7313 7.97108 50.6352 7.99432 50.5489 8.03861C50.4626 8.08291 50.3888 8.14694 50.3339 8.22515L47.4787 12.3011L46.2684 8.38426C46.2313 8.2648 46.1554 8.1601 46.0521 8.08566C45.9488 8.01122 45.8235 7.97099 45.6948 7.97093H43.6605C43.6034 7.97079 43.5471 7.98386 43.4962 8.00906C43.4454 8.03427 43.4015 8.07088 43.3682 8.11584C43.3349 8.16081 43.3132 8.21283 43.3048 8.26758C43.2965 8.32232 43.3017 8.37821 43.3202 8.43059L45.6004 14.9158L43.4567 17.8487C43.4186 17.9007 43.396 17.9619 43.3913 18.0255C43.3867 18.0891 43.4003 18.1527 43.4305 18.2094C43.4607 18.266 43.5064 18.3135 43.5626 18.3467C43.6188 18.3799 43.6834 18.3974 43.7492 18.3974H45.8168C45.9133 18.3975 46.0085 18.3749 46.094 18.3316C46.1796 18.2883 46.253 18.2255 46.3081 18.1486L53.1935 8.51655C53.2308 8.46444 53.2527 8.40342 53.2568 8.34011C53.2608 8.2768 53.247 8.21361 53.2166 8.1574C53.1863 8.10119 53.1407 8.0541 53.0847 8.02123C53.0287 7.98836 52.9645 7.97096 52.8991 7.97093Z" fill="#253B80"/>
<path d="M59.7531 4.11438H55.4505C55.3082 4.11444 55.1706 4.16371 55.0624 4.25334C54.9542 4.34297 54.8826 4.46706 54.8605 4.6033L53.1206 15.2943C53.1125 15.3438 53.1155 15.3945 53.1296 15.4427C53.1436 15.491 53.1683 15.5357 53.2019 15.5738C53.2355 15.612 53.2772 15.6426 53.3242 15.6636C53.3712 15.6846 53.4223 15.6954 53.4741 15.6954H55.682C55.7816 15.6953 55.8779 15.6607 55.9535 15.5979C56.0292 15.5351 56.0792 15.4482 56.0946 15.3528L56.5884 12.3224C56.6104 12.186 56.682 12.0618 56.7902 11.972C56.8984 11.8823 57.036 11.8329 57.1784 11.8328H58.5397C61.3741 11.8328 63.0089 10.5039 63.4367 7.87028C63.6298 6.71809 63.4442 5.8128 62.8875 5.17879C62.2767 4.48259 61.1929 4.11438 59.7531 4.11438ZM60.2494 8.01903C60.0147 9.51505 58.8353 9.51505 57.6943 9.51505H57.0457L57.5018 6.72114C57.5148 6.6394 57.5577 6.56489 57.6225 6.5111C57.6874 6.45732 57.7699 6.42781 57.8553 6.42791H58.1528C58.929 6.42791 59.6625 6.42791 60.0412 6.85709C60.267 7.11313 60.3356 7.49353 60.2494 8.01903ZM72.6117 7.97087H70.5529C70.4675 7.97064 70.3849 8.00011 70.32 8.05392C70.2552 8.10773 70.2124 8.18231 70.1994 8.2641L70.1082 8.82252L69.9635 8.62012C69.5175 7.99282 68.5237 7.78311 67.5311 7.78311C65.2546 7.78311 63.3109 9.45409 62.9322 11.7981C62.7359 12.9674 63.0146 14.0854 63.699 14.8651C64.328 15.582 65.225 15.8808 66.2937 15.8808C68.128 15.8808 69.1451 14.7377 69.1451 14.7377L69.0533 15.2925C69.0451 15.3422 69.0481 15.393 69.0622 15.4415C69.0763 15.4899 69.101 15.5348 69.1348 15.5731C69.1685 15.6114 69.2104 15.6421 69.2576 15.6631C69.3048 15.6841 69.3562 15.6949 69.4081 15.6948H71.2631C71.4055 15.6947 71.5432 15.6454 71.6514 15.5556C71.7595 15.4659 71.8311 15.3416 71.8531 15.2053L72.9671 8.372C72.975 8.32236 72.9718 8.27165 72.9575 8.22335C72.9433 8.17505 72.9184 8.13031 72.8847 8.0922C72.8509 8.05409 72.809 8.02351 72.7619 8.00257C72.7148 7.98163 72.6636 7.97081 72.6117 7.97087ZM69.7402 11.8566C69.5427 12.9972 68.6073 13.7629 67.4159 13.7629C66.819 13.7629 66.3397 13.577 66.0327 13.2246C65.7282 12.8747 65.6138 12.3766 65.7094 11.8219C65.8962 10.691 66.8448 9.90034 68.0179 9.90034C68.6029 9.90034 69.0785 10.0887 69.3917 10.4441C69.7069 10.8032 69.8314 11.3043 69.7402 11.8566ZM75.0404 4.40761L73.2747 15.2943C73.2667 15.3438 73.2697 15.3945 73.2838 15.4427C73.2978 15.491 73.3225 15.5357 73.3561 15.5738C73.3897 15.612 73.4314 15.6426 73.4784 15.6636C73.5254 15.6846 73.5765 15.6954 73.6283 15.6954H75.4034C75.6984 15.6954 75.9488 15.4882 75.9941 15.2059L77.7352 4.51551C77.7433 4.46596 77.7402 4.4153 77.7262 4.36701C77.7121 4.31872 77.6875 4.27395 77.6539 4.23578C77.6203 4.1976 77.5786 4.16693 77.5316 4.14587C77.4846 4.12481 77.4335 4.11386 77.3817 4.11377H75.394C75.3086 4.11406 75.2262 4.14379 75.1614 4.19764C75.0966 4.25148 75.0537 4.32591 75.0404 4.40761Z" fill="#179BD7"/>
<path d="M4.5705 17.773L4.89949 15.7479L4.16666 15.7314H0.667358L3.0992 0.78765C3.10644 0.74199 3.13037 0.700372 3.16662 0.670382C3.20288 0.640391 3.24905 0.624027 3.29671 0.62427H9.19704C11.1558 0.62427 12.5076 1.01931 13.2134 1.79902C13.5443 2.16479 13.755 2.54703 13.8569 2.96767C13.9638 3.40904 13.9657 3.93637 13.8613 4.57952L13.8538 4.62646V5.03857L14.1846 5.22024C14.4372 5.34426 14.6643 5.51203 14.8546 5.71525C15.1376 6.02799 15.3207 6.42547 15.398 6.89671C15.4779 7.38136 15.4515 7.95807 15.3207 8.61098C15.1697 9.36203 14.9256 10.0162 14.596 10.5514C14.3052 11.0309 13.9142 11.4462 13.448 11.7707C13.0102 12.0718 12.49 12.3004 11.9019 12.4467C11.332 12.5906 10.6822 12.6632 9.96949 12.6632H9.51029C9.18194 12.6632 8.86302 12.7778 8.61267 12.9832C8.36267 13.1908 8.19682 13.4777 8.14466 13.7928L8.11007 13.9751L7.52884 17.5444L7.50242 17.6755C7.4955 17.717 7.48355 17.7377 7.46594 17.7517C7.44888 17.7652 7.42759 17.7727 7.40555 17.773H4.5705Z" fill="#253B80"/>
<path d="M14.4979 4.67395C14.4803 4.78307 14.4601 4.89463 14.4375 5.00924C13.6594 8.88098 10.9973 10.2185 7.59739 10.2185H5.86629C5.4505 10.2185 5.10013 10.5111 5.03534 10.9086L4.14903 16.3562L3.89805 17.9004C3.88805 17.9616 3.89187 18.0243 3.90924 18.084C3.92661 18.1436 3.95712 18.199 3.99866 18.2461C4.04021 18.2933 4.09182 18.3312 4.14992 18.3571C4.20802 18.3831 4.27124 18.3966 4.33523 18.3966H7.40553C7.76911 18.3966 8.07797 18.1406 8.13521 17.7931L8.1654 17.6419L8.74348 14.0866L8.7806 13.8915C8.83721 13.5428 9.14669 13.2867 9.51027 13.2867H9.96947C12.9442 13.2867 15.2728 12.1163 15.9535 8.72918C16.2378 7.31424 16.0906 6.13278 15.3383 5.30186C15.0998 5.04482 14.815 4.83204 14.4979 4.67395Z" fill="#179BD7"/>
<path d="M13.684 4.35945C13.4355 4.2898 13.1828 4.23543 12.9272 4.19668C12.4223 4.12148 11.912 4.0854 11.4012 4.08878H6.77656C6.60056 4.08865 6.43032 4.14954 6.29661 4.26046C6.1629 4.37137 6.07454 4.52498 6.04751 4.69353L5.06371 10.7325L5.0354 10.9087C5.06605 10.7164 5.16668 10.5412 5.3191 10.4146C5.47151 10.288 5.66563 10.2185 5.86635 10.2186H7.59745C10.9974 10.2186 13.6594 8.88044 14.4375 5.00931C14.4608 4.8947 14.4803 4.78314 14.4979 4.67402C14.2926 4.56967 14.0786 4.48219 13.8582 4.41249C13.8004 4.39391 13.7423 4.37623 13.684 4.35945Z" fill="#222D65"/>
<path d="M6.04755 4.69351C6.07435 4.52491 6.16266 4.37123 6.29644 4.26037C6.43022 4.14951 6.60059 4.08884 6.7766 4.08937H11.4012C11.9491 4.08937 12.4605 4.12412 12.9273 4.19727C13.2431 4.24538 13.5546 4.31733 13.8589 4.41247C14.0885 4.48624 14.3017 4.57341 14.4986 4.674C14.7301 3.24321 14.4967 2.26903 13.6985 1.3869C12.8185 0.415765 11.2301 0 9.19774 0H3.29742C2.88226 0 2.52812 0.29262 2.46395 0.690706L0.00632508 15.7881C-0.00512215 15.8582 -0.000766866 15.9298 0.0190913 15.9982C0.0389495 16.0665 0.0738393 16.1298 0.121361 16.1838C0.168882 16.2378 0.227908 16.2811 0.294376 16.3109C0.360845 16.3407 0.43318 16.3562 0.506406 16.3563H4.14913L5.06374 10.7325L6.04755 4.69351Z" fill="#253B80"/>
</svg>
